<svg id="visual" viewBox="0 0 900 600" width="900" height="600" xmlns="http://www.w3.org/2000/svg" xmlns:xlink="http://www.w3.org/1999/xlink" version="1.1"><rect x="0" y="0" width="900" height="600" fill="#ffffff"></rect><path d="M0 435L12.5 442.2C25 449.3 50 463.7 75 469.2C100 474.7 125 471.3 150 461.7C175 452 200 436 225 430.2C250 424.3 275 428.7 300 430C325 431.3 350 429.7 375 436.2C400 442.7 425 457.3 450 465.2C475 473 500 474 525 473C550 472 575 469 600 469.3C625 469.7 650 473.3 675 467.2C700 461 725 445 750 442.7C775 440.3 800 451.7 825 450.8C850 450 875 437 887.5 430.5L900 424L900 601L887.5 601C875 601 850 601 825 601C800 601 775 601 750 601C725 601 700 601 675 601C650 601 625 601 600 601C575 601 550 601 525 601C500 601 475 601 450 601C425 601 400 601 375 601C350 601 325 601 300 601C275 601 250 601 225 601C200 601 175 601 150 601C125 601 100 601 75 601C50 601 25 601 12.5 601L0 601Z" fill="#5e9aa4"></path><path d="M0 494L12.5 493C25 492 50 490 75 485.7C100 481.3 125 474.7 150 475.7C175 476.7 200 485.3 225 481C250 476.7 275 459.3 300 450.5C325 441.7 350 441.3 375 451C400 460.7 425 480.3 450 483.8C475 487.3 500 474.7 525 465.3C550 456 575 450 600 450.3C625 450.7 650 457.3 675 460.3C700 463.3 725 462.7 750 464.8C775 467 800 472 825 474.3C850 476.7 875 476.3 887.5 476.2L900 476L900 601L887.5 601C875 601 850 601 825 601C800 601 775 601 750 601C725 601 700 601 675 601C650 601 625 601 600 601C575 601 550 601 525 601C500 601 475 601 450 601C425 601 400 601 375 601C350 601 325 601 300 601C275 601 250 601 225 601C200 601 175 601 150 601C125 601 100 601 75 601C50 601 25 601 12.5 601L0 601Z" fill="#67a7b5"></path><path d="M0 507L12.5 502.2C25 497.3 50 487.7 75 482.7C100 477.7 125 477.3 150 476.3C175 475.3 200 473.7 225 476.7C250 479.7 275 487.3 300 490.7C325 494 350 493 375 491.5C400 490 425 488 450 490.7C475 493.3 500 500.7 525 506.5C550 512.3 575 516.7 600 514.3C625 512 650 503 675 499.7C700 496.3 725 498.7 750 496C775 493.3 800 485.7 825 489.7C850 493.7 875 509.3 887.5 517.2L900 525L900 601L887.5 601C875 601 850 601 825 601C800 601 775 601 750 601C725 601 700 601 675 601C650 601 625 601 600 601C575 601 550 601 525 601C500 601 475 601 450 601C425 601 400 601 375 601C350 601 325 601 300 601C275 601 250 601 225 601C200 601 175 601 150 601C125 601 100 601 75 601C50 601 25 601 12.5 601L0 601Z" fill="#71b4c7"></path><path d="M0 522L12.5 524.3C25 526.7 50 531.3 75 536.2C100 541 125 546 150 545.3C175 544.7 200 538.3 225 534C250 529.7 275 527.3 300 523C325 518.7 350 512.3 375 515.5C400 518.7 425 531.3 450 534.5C475 537.7 500 531.3 525 528.8C550 526.3 575 527.7 600 529.8C625 532 650 535 675 537.8C700 540.7 725 543.3 750 539C775 534.7 800 523.3 825 520C850 516.7 875 521.3 887.5 523.7L900 526L900 601L887.5 601C875 601 850 601 825 601C800 601 775 601 750 601C725 601 700 601 675 601C650 601 625 601 600 601C575 601 550 601 525 601C500 601 475 601 450 601C425 601 400 601 375 601C350 601 325 601 300 601C275 601 250 601 225 601C200 601 175 601 150 601C125 601 100 601 75 601C50 601 25 601 12.5 601L0 601Z" fill="#7bc1d9"></path><path d="M0 559L12.5 560.7C25 562.3 50 565.7 75 564C100 562.3 125 555.7 150 552.3C175 549 200 549 225 548C250 547 275 545 300 545.7C325 546.3 350 549.7 375 550.3C400 551 425 549 450 547.7C475 546.3 500 545.7 525 546.8C550 548 575 551 600 556C625 561 650 568 675 570.2C700 572.3 725 569.7 750 564C775 558.3 800 549.7 825 549.8C850 550 875 559 887.5 563.5L900 568L900 601L887.5 601C875 601 850 601 825 601C800 601 775 601 750 601C725 601 700 601 675 601C650 601 625 601 600 601C575 601 550 601 525 601C500 601 475 601 450 601C425 601 400 601 375 601C350 601 325 601 300 601C275 601 250 601 225 601C200 601 175 601 150 601C125 601 100 601 75 601C50 601 25 601 12.5 601L0 601Z" fill="#87ceeb"></path></svg>