<svg id="visual" viewBox="0 0 900 600" width="900" height="600" xmlns="http://www.w3.org/2000/svg" xmlns:xlink="http://www.w3.org/1999/xlink" version="1.1"><rect x="0" y="0" width="900" height="600" fill="#fff"></rect><defs><linearGradient id="grad1_0" x1="33.3%" y1="0%" x2="100%" y2="100%"><stop offset="20%" stop-color="#87ceeb" stop-opacity="1"></stop><stop offset="80%" stop-color="#87ceeb" stop-opacity="1"></stop></linearGradient></defs><defs><linearGradient id="grad1_1" x1="33.3%" y1="0%" x2="100%" y2="100%"><stop offset="20%" stop-color="#87ceeb" stop-opacity="1"></stop><stop offset="80%" stop-color="#ffffff" stop-opacity="1"></stop></linearGradient></defs><defs><linearGradient id="grad2_0" x1="0%" y1="0%" x2="66.7%" y2="100%"><stop offset="20%" stop-color="#87ceeb" stop-opacity="1"></stop><stop offset="80%" stop-color="#87ceeb" stop-opacity="1"></stop></linearGradient></defs><defs><linearGradient id="grad2_1" x1="0%" y1="0%" x2="66.7%" y2="100%"><stop offset="20%" stop-color="#ffffff" stop-opacity="1"></stop><stop offset="80%" stop-color="#87ceeb" stop-opacity="1"></stop></linearGradient></defs><g transform="translate(900, 0)"><path d="M0 378.6C-20.2 343.2 -40.3 307.8 -70.3 308.1C-100.3 308.3 -140.1 344.2 -164.3 341.1C-188.4 337.9 -197 295.7 -218.2 273.6C-239.4 251.6 -273.2 249.6 -290.8 231.9C-308.5 214.3 -310.1 181 -319.8 154C-329.6 127.1 -347.6 106.5 -358.8 81.9C-369.9 57.3 -374.3 28.6 -378.6 0L0 0Z" fill="#c6e6f5"></path><path d="M0 189.3C-10.1 171.6 -20.2 153.9 -35.2 154C-50.1 154.2 -70 172.1 -82.1 170.5C-94.2 169 -98.5 147.9 -109.1 136.8C-119.7 125.8 -136.6 124.8 -145.4 116C-154.3 107.1 -155 90.5 -159.9 77C-164.8 63.5 -173.8 53.2 -179.4 40.9C-185 28.6 -187.1 14.3 -189.3 0L0 0Z" fill="#87ceeb"></path></g><g transform="translate(0, 600)"><path d="M0 -378.6C31.5 -382.7 63.1 -386.9 83.7 -366.6C104.3 -346.3 113.9 -301.6 139.7 -290.1C165.5 -278.6 207.4 -300.4 236 -296C264.7 -291.6 280.2 -261.1 292.4 -233.2C304.6 -205.3 313.4 -180 321.6 -154.9C329.9 -129.8 337.7 -105 347.1 -79.2C356.5 -53.4 367.5 -26.7 378.6 0L0 0Z" fill="#c6e6f5"></path><path d="M0 -189.3C15.8 -191.4 31.5 -193.4 41.8 -183.3C52.1 -173.1 57 -150.8 69.9 -145.1C82.7 -139.3 103.7 -150.2 118 -148C132.4 -145.8 140.1 -130.5 146.2 -116.6C152.3 -102.6 156.7 -90 160.8 -77.4C165 -64.9 168.8 -52.5 173.5 -39.6C178.2 -26.7 183.8 -13.4 189.3 0L0 0Z" fill="#87ceeb"></path></g></svg>